<svg width="37" height="37" xmlns="http://www.w3.org/2000/svg"><g transform="translate(1 1)" fill="none" fill-rule="evenodd"><circle stroke="#47d7ac" fill="#FFF" cx="17.5" cy="17.5" r="17.5"/><path d="M4.85 15.826s6.081-9.041 20.934-.618c0 0 3.3-2.035 4.446-2.035 0 0-1.42 3.04-3.066 4.43 0 0 2.508 2.318 3.006 4.945 0 0-2.043-.463-4.386-2.936 0 0-12.87 9.067-20.994-.824l2.602-.18S5.1 16.985 4.85 15.826" fill="#1A1918"/><path d="M17.37 16.83s2.27 2.215 3.504 1.803c0 0-1.513 2.06-4.34.928" stroke="#FFF" stroke-width=".5"/><path d="M10.611 14.918a.637.637 0 1 1-1.275 0 .637.637 0 0 1 1.275 0" fill="#FFF"/></g></svg>