<svg width="37" height="37" xmlns="http://www.w3.org/2000/svg"><g transform="translate(1 1)" fill="none" fill-rule="evenodd"><circle stroke="#47d7ac" fill="#FFF" cx="17.5" cy="17.5" r="17.5"/><path d="M4.073 18.032l.182 2.391s.063 2.858 2.032 3.011c2.338.183 4.991-.456 8.546.078 3.554.535 6.87 2.684 8.281 2.848 4.345.507 7.692-4 7.692-6.632l.173-4.081" fill="#26282B"/><path d="M30.806 15.008c0 4.862-4.693 9.975-8.26 8.893-4.065-1.233-5.266-3.03-8.259-3.12-6.2-.184-7.776 1.129-9.74-1.872-1.335-2.039 1.469-4.612 5.623-6.656.435-.214 2.672-1.178 3.362-1.431 3.371-1.237 7.081-2.057 10.074-2.055 7.114.002 7.2 2.83 7.2 6.241z" fill="#FFF"/><path d="M30.626 15.008c0 4.77-4.608 9.752-8.028 8.714a18.608 18.608 0 0 1-2.545-.978c-.571-.268-2.374-1.218-2.767-1.4-1.035-.48-1.921-.717-2.993-.748-1.352-.04-2.445-.018-3.972.056-2.117.103-2.512.108-3.178-.01-.815-.144-1.41-.501-2.005-1.23a7.127 7.127 0 0 1-.441-.607c-1.145-1.748 1.078-4.183 5.55-6.384a69.35 69.35 0 0 1 3.345-1.424c3.497-1.283 7.153-2.045 10.013-2.044 3.29.001 5.186.6 6.13 1.775.731.91.89 1.906.89 4.28zm.36 0c0-1.204-.023-1.8-.126-2.444-.135-.841-.4-1.516-.847-2.073-1.027-1.28-3.021-1.91-6.407-1.91-2.906-.002-6.601.769-10.135 2.065a69.342 69.342 0 0 0-3.379 1.438c-4.66 2.294-7.03 4.89-5.694 6.93.156.238.31.45.464.639.65.794 1.32 1.197 2.22 1.356.704.125 1.103.12 3.256.015 1.518-.074 2.603-.096 3.944-.056 1.02.03 1.862.255 2.856.716.382.177 2.184 1.127 2.766 1.399a18.96 18.96 0 0 0 2.592.997c3.685 1.117 8.49-4.08 8.49-9.072z" fill="#1F252A"/><path d="M30.038 14.97c.001 4.453-4.148 9.136-7.414 8.145-3.724-1.13-4.976-3.244-7.717-3.325-5.68-.169-7.564 1.192-9.375-1.247-1.549-2.085 2.224-4.354 7.128-6.463.765-.328 8.565-2.726 10.782-2.828 6.364-.29 6.595 2.594 6.596 5.718z" fill="#FFF"/><path d="M29.857 14.97c.001 4.383-4.078 8.908-7.182 7.966-1.062-.322-1.967-.732-2.957-1.3-.266-.152-1.668-1.007-2.056-1.217-.97-.526-1.787-.787-2.75-.815-1.385-.041-2.519-.002-4.058.107-2.176.154-2.495.165-3.159.05-.822-.144-1.425-.53-2.02-1.331-.657-.885-.275-1.851 1.112-2.963 1.237-.99 3.215-2.042 5.943-3.215.429-.184 2.726-.9 4.824-1.491 2.762-.777 4.928-1.278 5.896-1.322 2.92-.134 4.649.39 5.536 1.51.69.869.87 1.917.871 4.02zm.361 0c0-2.188-.191-3.299-.952-4.258-.974-1.226-2.81-1.784-5.832-1.646-1.005.046-3.184.55-5.975 1.336-2.115.594-4.42 1.314-4.868 1.506-2.755 1.185-4.756 2.249-6.026 3.265-1.523 1.22-1.986 2.394-1.177 3.483.65.875 1.333 1.312 2.247 1.472.706.123 1.026.112 3.244-.046 1.528-.108 2.651-.147 4.023-.106.902.027 1.668.27 2.592.772.378.206 1.775 1.058 2.049 1.214 1.012.58 1.94 1.001 3.03 1.332 3.372 1.023 7.647-3.72 7.645-8.324z" fill="#26282B"/><path d="M27.431 13.507c.126.542-.049 1.791-2.031 1.873-1.983.081-2.557-.839-2.557-1.873s1.487-1.954 2.557-1.873c1.07.082 1.905 1.331 2.031 1.873z" fill="#FFF"/><path d="M27.255 13.55c.069.294.012.663-.195.956-.283.4-.822.653-1.668.688-1.665.068-2.369-.56-2.369-1.687 0-.857 1.318-1.766 2.363-1.687.815.062 1.708 1.034 1.87 1.73zm.352-.086c-.196-.842-1.204-1.94-2.194-2.015-1.234-.094-2.75.954-2.75 2.058 0 1.349.882 2.136 2.744 2.059.948-.04 1.591-.34 1.945-.84.273-.386.346-.868.255-1.262z" fill="#1F252A"/><path d="M26.47 13.47c.077.33-.03 1.09-1.235 1.139-1.205.05-1.554-.51-1.554-1.139s.904-1.188 1.554-1.138c.65.049 1.16.809 1.236 1.138z" fill="#1F252A"/><path d="M22.698 9.252l.82.102s-2.402 1.222-2.77 1.938c-.542 1.051-.733 3.416-.773 4.33-.03.685 2.81 1.648 5.708 2.535 1.871.573 3.343.591 3.343.591l-.278.694s-1.28-.203-3.138-.728c-4.417-1.247-6.104-2.495-6.104-2.495s-5.168.553-6.718 1.215c-1.55.662-3.43-.013-4.895.072-1.6.093-2.333.848-2.333.848l-.314-.573s.824-.807 2.629-.861c1.803-.055 3.668.462 4.802-.117 1.135-.58 6.693-1.18 6.693-1.18s.453-3.857.882-4.57c.428-.711 2.446-1.8 2.446-1.8" fill="#26282B"/></g></svg>