<svg version="1.1" id="Layer_1" xmlns="http://www.w3.org/2000/svg" xmlns:xlink="http://www.w3.org/1999/xlink" x="0" y="0" viewBox="0 0 25 25" xml:space="preserve" enable-background="new 0 0 25 25"><style type="text/css">.st0{fill:#290088}.st1{fill:#ff4c00}.st2{fill:#00bcb4}.st3{fill:#fff;stroke:#290088;stroke-width:.9825;stroke-miterlimit:10}.st4,.st5{fill:none;stroke:#290088}.st4{stroke-miterlimit:10;stroke-width:3.3585}.st5{stroke-width:3.9286;stroke-linecap:round;stroke-linejoin:round}.st5,.st6,.st7{stroke-miterlimit:10}.st6{stroke-width:3.6484;fill:none;stroke:#290088}.st7{fill:#fff;stroke:#52239a}.st8{fill:#c5addb}.st10,.st9{fill:none;stroke:#52239a;stroke-width:1.0141;stroke-linecap:round;stroke-linejoin:round;stroke-miterlimit:10}.st10{stroke-width:1.0055}.st11{fill:#52239a}.st12,.st13,.st14{fill:#fff;stroke:#7e55b2;stroke-miterlimit:10}.st13,.st14{fill:#7e55b2;stroke-width:.7405;stroke-linecap:round;stroke-linejoin:round}.st14{fill:#bba1d6;stroke:#fff;stroke-width:.7746}.st15{fill:#fff}.st16{fill:#7e55b2}.st17{fill:#d9c8e7}.st18{fill:#fff;stroke-width:.9458}.st18,.st19,.st20{stroke:#52239a;stroke-linecap:round;stroke-linejoin:round;stroke-miterlimit:10}.st19{stroke-width:.9839;fill:#52239a}.st20{fill:#fff}.st21,.st22,.st23,.st24,.st25{fill:none;stroke:#52239a;stroke-miterlimit:10}.st22,.st23,.st24,.st25{stroke-linecap:round;stroke-linejoin:round}.st23,.st24,.st25{fill:#52239a}.st24,.st25{fill:none;stroke-width:1.0947}.st25{fill:#fff}.st26,.st27,.st28,.st29{fill:none;stroke:#a787ca;stroke-width:.9419;stroke-miterlimit:10}.st27,.st28,.st29{fill:#fff;stroke:#52239a;stroke-width:.9652;stroke-linecap:round;stroke-linejoin:round}.st28,.st29{stroke-width:.9167}.st29{fill:#52239a;stroke-width:.5361}.st30,.st31{fill:none;stroke:#fff}.st30{stroke-linecap:round;stroke-linejoin:round;stroke-miterlimit:10;stroke-width:.723}.st31{stroke-width:.739}.st31,.st32,.st33{stroke-linecap:round;stroke-linejoin:round;stroke-miterlimit:10}.st32{fill:none;stroke:#7e55b2;stroke-width:.75}.st33{stroke:#bba1d6;stroke-width:.4988}.st33,.st34{fill:#bba1d6}.st35,.st36,.st37,.st38,.st39,.st40,.st41,.st42,.st43,.st44,.st45{fill:#c5addb;stroke:#52239a;stroke-linecap:round;stroke-linejoin:round;stroke-miterlimit:10}.st36,.st37,.st38,.st39,.st40,.st41,.st42,.st43,.st44,.st45{fill:#fff;stroke-width:.85}.st37,.st38,.st39,.st40,.st41,.st42,.st43,.st44,.st45{fill:none;stroke-width:.8946}.st38,.st39,.st40,.st41,.st42,.st43,.st44,.st45{stroke-width:.9038}.st39,.st40,.st41,.st42,.st43,.st44,.st45{stroke:#fff;stroke-width:.7687}.st40,.st41,.st42,.st43,.st44,.st45{stroke-width:.7091}.st41,.st42,.st43,.st44,.st45{stroke-width:.7107}.st42,.st43,.st44,.st45{stroke-width:.7237}.st43,.st44,.st45{stroke:#7e55b2;stroke-width:.7345}.st44,.st45{stroke:#fff;stroke-width:.7999}.st45{stroke-width:.8359}.st46,.st47,.st48,.st49{fill:none;stroke:#a787ca;stroke-miterlimit:10}.st47,.st48,.st49{stroke:#2d2926;stroke-width:7.3325;stroke-linecap:round;stroke-linejoin:round}.st48,.st49{stroke-width:14.6092}.st49{stroke:#3a3a3a;stroke-width:2.039}.st50{fill:#3a3a3a}.st51{fill:none;stroke:#3a3a3a;stroke-width:2.039;stroke-miterlimit:10}.st52{fill:#2e008b}.st53,.st54,.st55,.st56{fill:none;stroke:#3a3a3a;stroke-width:.7202;stroke-linecap:round;stroke-linejoin:round;stroke-miterlimit:10}.st54,.st55,.st56{fill:#fff}.st55,.st56{fill:none;stroke:#2e008b}.st56{fill:#fff}</style><g><g><g><path class="st15" d="M12.5,24.6c-5.3,0-9.8-3.3-11.7-8.6C0,13.8,0,11.2,0.8,9c1.9-5.3,6.4-8.6,11.7-8.6c4.6,0,8.7,2.5,10.9,6.8 c1.8,3.4,1.8,7.3,0,10.7C21.3,22.1,17.2,24.6,12.5,24.6z"/></g><g><path class="st52" d="M12.5,0l0,0.7h0c4.5,0,8.5,2.5,10.6,6.6c1.7,3.3,1.7,7.1,0,10.3c-2.1,4.1-6.1,6.6-10.6,6.6 c-5.2,0-9.5-3.2-11.4-8.4c-0.8-2.2-0.8-4.6,0-6.8C3,3.9,7.4,0.7,12.5,0.7L12.5,0 M12.5,0c-5,0-9.9,2.9-12.1,8.8 c-0.8,2.4-0.8,5,0,7.3C2.6,22.1,7.6,25,12.5,25c4.4,0,8.8-2.3,11.3-7c1.8-3.5,1.8-7.5,0-11C21.4,2.3,17,0,12.5,0L12.5,0z"/></g></g><g><path class="st15" d="M15.4,5.8h-3.2c-1.5,0-2.8,1.3-2.8,2.8h4.2L15.4,5.8z"/></g><g><path class="st15" d="M11,8c-6.3,0-8.1,4.7-8.1,4.7s1.8,4.7,8.1,4.7c6.1,0,8.1-4.7,8.1-4.7S17.1,8,11,8"/></g><g><path class="st15" d="M21.8,15.6h0.5V9.7h-0.5c-1.7,0-3.1,1.3-3.1,2.9v0C18.8,14.3,20.1,15.6,21.8,15.6"/></g><path class="st52" d="M22.3,9.4h-0.5c-1.4,0-2.6,0.8-3.1,1.9c-0.8-1-2.1-2.4-4.4-3.1L15.7,6c0.1-0.1,0.1-0.3,0-0.4 s-0.2-0.2-0.3-0.2h-3.2c-1.4,0-2.6,1-3,2.3c-5.1,0.8-6.8,4.7-6.8,4.8c0,0.1,0,0.2,0,0.3c0,0,2,4.9,8.5,4.9c4.3,0,6.6-2.2,7.7-3.7 c0.5,1.1,1.7,1.9,3.1,1.9h0.5c0.2,0,0.4-0.2,0.4-0.4V9.7C22.6,9.5,22.5,9.4,22.3,9.4z M12.2,6.2h2.5L13.6,8C12.8,7.8,12,7.6,11,7.6 c-0.3,0-0.6,0-0.9,0C10.4,6.8,11.3,6.2,12.2,6.2z M9.4,16.8c-4.3-0.6-5.9-3.5-6.2-4.2C3.5,12,5.2,9,9.5,8.5c0.3,0.5,0.7,1.6,0.7,4 C10.2,15,9.6,16.3,9.4,16.8z M21.9,15.2L21.9,15.2c-1.6,0-2.8-1.2-2.8-2.6s1.2-2.6,2.7-2.6h0.1V15.2z"/><g><path class="st52" d="M6.2,11.9c0,0.3-0.2,0.6-0.5,0.6c-0.3,0-0.6-0.2-0.6-0.5c0-0.3,0.2-0.6,0.5-0.6C5.9,11.3,6.2,11.5,6.2,11.9"/></g></g></svg>