<svg version="1.1" id="Layer_1" xmlns="http://www.w3.org/2000/svg" xmlns:xlink="http://www.w3.org/1999/xlink" x="0" y="0" viewBox="0 0 25 25" xml:space="preserve" enable-background="new 0 0 25 25"><style type="text/css">.st0{fill:#fff}.st1{fill:#2e008b}</style><g><g><g><path class="st0" d="M12.5,24.6c-3.9,0-7.6-1.9-9.9-5.1c-2.3-3.3-2.8-7.6-1.4-11.7C2,5.5,3.6,3.6,5.7,2.3c2.2-1.3,4.5-2,6.8-2 c3.9,0,7.6,1.9,9.9,5.1c2.3,3.3,2.8,7.6,1.4,11.7c-0.8,2.3-2.4,4.2-4.5,5.5C17.1,24,14.8,24.6,12.5,24.6z"/></g><g><path class="st1" d="M12.5,0.7L12.5,0.7c3.8,0,7.4,1.9,9.6,5c2.3,3.2,2.8,7.4,1.3,11.4c-0.8,2.2-2.3,4.1-4.3,5.3 c-2.1,1.3-4.4,1.9-6.7,1.9c-3.8,0-7.4-1.9-9.6-5C0.5,16.1,0,11.9,1.5,7.9c0.8-2.2,2.3-4.1,4.3-5.3C8,1.4,10.2,0.7,12.5,0.7 M12.5,0c-2.3,0-4.7,0.6-7,2C3.3,3.3,1.7,5.3,0.9,7.7C-2.4,16.9,4.3,25,12.5,25c2.3,0,4.7-0.6,7-2c2.2-1.3,3.8-3.3,4.6-5.7 C27.4,8.1,20.7,0,12.5,0L12.5,0z"/></g></g><g><path class="st1" d="M11.9,22.2c-1,0-1.9-0.3-2.6-1c-0.8-0.7-1.2-1.7-1.2-2.7c0-0.6,0.4-1.8,0.4-1.8c0.4-1.6,0.6-2.8-0.1-3.9 c-0.3-0.6-0.8-1.1-1.2-1.7L7,10.9C5.8,9.5,5.5,7.7,6.2,6.2C6.9,4.6,8.9,3,11.4,3.3h0.1c3,0.3,8.1,0.9,8.1,7.9 c0,1.5-0.6,3.8-1.4,5.6c-1.5,3.3-3.6,5.2-5.8,5.4C12.2,22.2,12,22.2,11.9,22.2z M10.8,4c-1.9,0-3.4,1.2-4,2.5 c-0.5,1.2-0.3,2.7,0.7,3.9l0.2,0.2c0.5,0.6,0.9,1.1,1.3,1.8c0.9,1.5,0.6,3.1,0.2,4.5c-0.1,0.4-0.4,1.2-0.4,1.6 c0,0.9,0.3,1.6,0.9,2.2c0.6,0.6,1.5,0.9,2.5,0.8c2-0.2,3.9-2,5.2-5c0.8-1.7,1.3-3.9,1.3-5.3l0,0c0.1-6.4-4.4-6.9-7.4-7.2h-0.1 C11.1,4,11,4,10.8,4z"/></g><g><path class="st1" d="M7.9,7.6c-0.3,1.3,1,2,1.7,3.2c0.6,1,0.8,1.7,1.5,2c0.5,0.2,1.6-1,3-2.6c1-1.2,2.4-2.2,2.2-2.7 C16,6.3,8.9,3.7,7.9,7.6"/></g><g><path class="st1" d="M13.4,19.6c0.8-0.6,1.5-1.5,2-2.4c1.8-3.2,2.2-6,1.4-6.6c-0.7-0.5-3.9,3.6-4.6,4.2c-3.1,2.6-2,4.7-1,5.2 C11.9,20.4,12.8,20,13.4,19.6"/></g></g><circle class="st0" cx="9.7" cy="7.9" r="1.1"/></svg>