<svg version="1.1" id="Layer_1" xmlns="http://www.w3.org/2000/svg" xmlns:xlink="http://www.w3.org/1999/xlink" x="0" y="0" viewBox="0 0 25 25" xml:space="preserve" enable-background="new 0 0 25 25"><style type="text/css">.st0{fill:#fff}.st1{fill:#2e008b}</style><g><g><path class="st0" d="M12.5,24.6c-5.3,0-9.8-3.3-11.7-8.6C0,13.7,0,11.2,0.8,8.9c1.9-5.3,6.4-8.6,11.7-8.6s9.8,3.3,11.7,8.6 c0.8,2.3,0.8,4.8,0,7.1C22.3,21.3,17.8,24.6,12.5,24.6z"/></g><g><path class="st1" d="M12.5,0.7c5.2,0,9.5,3.2,11.4,8.4c0.8,2.2,0.8,4.6,0,6.8c-1.9,5.2-6.2,8.4-11.4,8.4S3,21.1,1.1,15.9 c-0.8-2.2-0.8-4.6,0-6.8C3,3.9,7.3,0.7,12.5,0.7 M12.5,0c-5,0-9.9,2.9-12.1,8.8c-0.8,2.4-0.8,5,0,7.3c2.2,6,7.1,8.9,12.1,8.9 s9.9-2.9,12.1-8.8c0.8-2.4,0.8-5,0-7.3C22.4,2.9,17.5,0,12.5,0L12.5,0z"/></g></g><path class="st1" d="M15.3,10.4c-0.6-0.6-1.4-0.5-2.3-0.5c0,0,0,0,0-0.1c0.2-0.8,1.1-1.3,1.2-1.4c0.9-0.7,1.4-1.1,1.4-1.6	c0-0.7-0.9-0.8-1.1-0.8c0.4-0.3,0.7-0.8,0.6-1.2c-0.2-0.8-1.3-0.7-1.3-0.7c0-0.1,0.2-0.6,0.2-1c0-1.3-1.1-1.4-1.4-1.4	c0,0-0.1,0-0.1,0c-0.3,0-1.4,0.1-1.4,1.4c0,0.4,0.2,0.9,0.2,1c0,0-1.1-0.1-1.3,0.7C9.8,5.2,10.1,5.7,10.5,6c-0.2,0-1.1,0.1-1.1,0.8	c0,0.5,0.5,0.9,1.4,1.6c0.1,0.1,0.9,0.7,1.2,1.4c0,0,0,0,0,0.1c-0.9,0-1.8,0-2.3,0.6c-0.4,0.4-0.6,1-0.5,1.9C9.2,14,10.8,23,12.5,23	c1.8,0,3.4-9.1,3.4-10.7C15.9,11.5,15.7,10.8,15.3,10.4z M15.1,12.5h-2c-0.2,0-0.4,0.2-0.4,0.4c0,0.2,0.2,0.4,0.4,0.4H15	c-0.1,1.3-0.5,3.2-0.9,4.8h-1.8c-0.2,0-0.4,0.2-0.4,0.4s0.2,0.4,0.4,0.4h1.6c-0.5,1.8-1.1,3.3-1.5,3.5c-0.5-0.2-1.5-3.5-2.1-6.3h1.9	c0.2,0,0.4-0.2,0.4-0.4s-0.2-0.4-0.4-0.4h-2C10,14,9.9,13,9.9,12.3s0.1-1.1,0.3-1.3c0.3-0.3,0.9-0.4,1.6-0.4c0.1,0,1.3,0,1.3,0	c0.8,0,1.3,0,1.6,0.3C15.2,11.3,15.1,12.4,15.1,12.5z"/></svg>